0
SECTION
2
HEADER
9
$INSUNITS
70
4
9
$ACADVER
1
AC1014
9
$HANDSEED
5
FFFF
0
ENDSEC
0
SECTION
2
TABLES
0
TABLE
2
VPORT
5
8
100
AcDbSymbolTable
0
ENDTAB
0
TABLE
2
LTYPE
5
5
100
AcDbSymbolTable
0
LTYPE
5
14
100
AcDbSymbolTableRecord
100
AcDbLinetypeTableRecord
2
BYBLOCK
70
0
0
LTYPE
5
15
100
AcDbSymbolTableRecord
100
AcDbLinetypeTableRecord
2
BYLAYER
70
0
0
ENDTAB
0
TABLE
2
LAYER
5
2
100
AcDbSymbolTable
70
2
0
LAYER
5
50
100
AcDbSymbolTableRecord
100
AcDbLayerTableRecord
2
0
70
0
6
CONTINUOUS
0
ENDTAB
0
TABLE
2
STYLE
5
3
100
AcDbSymbolTable
70
1
0
STYLE
5
11
100
AcDbSymbolTableRecord
100
AcDbTextStyleTableRecord
2
STANDARD
70
0
0
ENDTAB
0
TABLE
2
VIEW
5
6
100
AcDbSymbolTable
70
0
0
ENDTAB
0
TABLE
2
UCS
5
7
100
AcDbSymbolTable
70
0
0
ENDTAB
0
TABLE
2
APPID
5
9
100
AcDbSymbolTable
70
2
0
APPID
5
12
100
AcDbSymbolTableRecord
100
AcDbRegAppTableRecord
2
ACAD
70
0
0
ENDTAB
0
TABLE
2
DIMSTYLE
5
A
100
AcDbSymbolTable
70
1
0
ENDTAB
0
TABLE
2
BLOCK_RECORD
5
1
100
AcDbSymbolTable
70
1
0
BLOCK_RECORD
5
1F
100
AcDbSymbolTableRecord
100
AcDbBlockTableRecord
2
*MODEL_SPACE
0
BLOCK_RECORD
5
1B
100
AcDbSymbolTableRecord
100
AcDbBlockTableRecord
2
*PAPER_SPACE
0
ENDTAB
0
ENDSEC
0
SECTION
2
BLOCKS
0
BLOCK
5
20
100
AcDbEntity
100
AcDbBlockBegin
2
*MODEL_SPACE
0
ENDBLK
5
21
100
AcDbEntity
100
AcDbBlockEnd
0
BLOCK
5
1C
100
AcDbEntity
100
AcDbBlockBegin
2
*PAPER_SPACE
0
ENDBLK
5
1D
100
AcDbEntity
100
AcDbBlockEnd
0
ENDSEC
0
SECTION
2
ENTITIES
0
LWPOLYLINE
5
100
100
AcDbEntity
8
0
100
AcDbPolyline
90
80
70
1
43
0.0
10
-145.00000216066837
20
0
10
-39.999994188547134
20
2.2500521342165041e-13
10
-39.999994188547134
20
10.000000149011836
10
-34.999994114041328
20
10.00000014901185
10
-34.999994114041328
20
2.375877272697835e-13
10
-30
20
2.4868995751603507e-13
10
-29.999994188547134
20
10.000000149011861
10
-24.999994114041328
20
10.000000149011871
10
-24.999994114041328
20
2.5979218776228663e-13
10
-20
20
2.7237471537470499e-13
10
-19.999994188547134
20
10.000000149011885
10
-14.999994114041328
20
10.000000149011896
10
-14.999994114041328
20
2.8421709430404007e-13
10
-10
20
2.9605947323337501e-13
10
-9.9999941885471344
20
10.000000149011907
10
-4.9999941140413284
20
10.000000149011921
10
-4.9999941140413284
20
3.0864200084579352e-13
10
0
20
3.1974423109204508e-13
10
5.8114528656005859e-06
20
10.000000149011932
10
5.0000058859586716
20
10.000000149011942
10
5.0000058859586716
20
3.3084646133829665e-13
10
10
20
3.4342898895071501e-13
10
10.000005811452866
20
10.000000149011957
10
15.000005885958672
20
10.000000149011967
10
15.000005885958672
20
3.5527136788005009e-13
10
20
20
3.6711374680938503e-13
10
20.000005811452866
20
10.000000149011978
10
25.00000573694706
20
10.000000149011992
10
25.00000573694706
20
3.7969627442180354e-13
10
30.000005811452866
20
3.907985184323405e-13
10
30.000005811452866
20
10.000000149012003
10
35.000005885958672
20
10.000000149012013
10
35.000005885958672
20
4.0190073491430667e-13
10
40
20
4.1448326252672502e-13
10
39.999999999999929
20
30.000000000000412
10
-400
20
30
10
-400
20
0
10
-395.00000588595867
20
0
10
-395.00000588595867
20
10.000000149011612
10
-390.00000581145287
20
10.000000149011612
10
-390.00000581145287
20
0
10
-385.00000573694706
20
0
10
-385.00000573694706
20
10.000000149011612
10
-380.00000581145287
20
10.000000149011612
10
-380.00000581145287
20
0
10
-375.00000588595867
20
0
10
-375.00000588595867
20
10.000000149011612
10
-370.00000581145287
20
10.000000149011612
10
-370.00000581145287
20
0
10
-365.00000588595867
20
0
10
-365.00000588595867
20
10.000000149011612
10
-360.00000581145287
20
10.000000149011612
10
-360.00000581145287
20
0
10
-355.00000588595867
20
0
10
-355.00000588595867
20
10.000000149011612
10
-350.00000581145287
20
10.000000149011612
10
-350.00000581145287
20
0
10
-345.00000588595867
20
0
10
-345.00000588595867
20
10.000000149011612
10
-340.00000581145287
20
10.000000149011612
10
-340.00000581145287
20
0
10
-335.00000588595867
20
0
10
-335.00000588595867
20
10.000000149011612
10
-330.00000581145287
20
10.000000149011612
10
-330.00000581145287
20
0
10
-325.00000588595867
20
0
10
-325.00000588595867
20
10.000000149011612
10
-320.00000581145287
20
10.000000149011612
10
-320.00000581145287
20
0
10
-215.00000320374966
20
0
10
-215.00000320374969
20
9.4098329217729511
42
-2.6180339364095939
10
-205.00000305473804
20
9.4098273240112604
10
-205.00000305473804
20
0
10
-185.00000275671482
20
0
10
-185.00000275671482
20
-9.4098303464079631
42
2.6180339364101446
10
-175.00000260770321
20
-9.4098303464079631
10
-175.00000260770321
20
0
10
-155.00000230967999
20
0
10
-155.00000230967999
20
9.4098321220919665
42
-2.6180339364098644
10
-145.00000216066837
20
9.4098281236907333
0
LWPOLYLINE
5
101
100
AcDbEntity
8
0
100
AcDbPolyline
90
4
70
1
43
0.0
10
-98.500002682208986
20
-158.00000602006918
10
-101.500002682209
20
-158.00000602006918
10
-101.500002682209
20
-138.00000602006918
10
-98.500002682208986
20
-138.00000602006918
0
LINE
5
102
100
AcDbEntity
8
0
100
AcDbLine
10
-115.00000186264515
20
-178.00000394880777
30
0
11
-100.00000186264515
21
-178.00000394880777
31
0
0
LINE
5
103
100
AcDbEntity
8
0
100
AcDbLine
10
-100.00000186264515
20
-178.00000394880777
30
0
11
-85.000001862645178
21
-178.0000027194618
31
0
0
LINE
5
104
100
AcDbEntity
8
0
100
AcDbLine
10
-85.000001862645178
20
-178.0000027194618
30
0
11
-80.000011287630628
21
-63.000002309680205
31
0
0
ARC
5
105
100
AcDbEntity
8
0
100
AcDbCircle
10
-45.000011287630741
20
-62.999999441206363
30
0
40
35.000000000000007
210
0
220
0
230
1
100
AcDbArc
50
90.000004695755564
51
180.00000467631085
0
LINE
5
106
100
AcDbEntity
8
0
100
AcDbLine
10
-45.000001862645149
20
-28.000003948807723
30
0
11
-45.000001862645149
21
-25.000003948807716
31
0
0
LINE
5
107
100
AcDbEntity
8
0
100
AcDbLine
10
-45.000001862645149
20
-25.000003948807716
30
0
11
-55.000002309679985
21
-25.000003948807716
31
0
0
LINE
5
108
100
AcDbEntity
8
0
100
AcDbLine
10
-55.000002309679985
20
-25.000003948807716
30
0
11
-55.000002309679985
21
-19.000003948807738
31
0
0
LINE
5
109
100
AcDbEntity
8
0
100
AcDbLine
10
-55.000002309679985
20
-19.000003948807738
30
0
11
-75.000002309679985
21
-19.000003948807738
31
0
0
LINE
5
110
100
AcDbEntity
8
0
100
AcDbLine
10
-75.000002309679985
20
-19.000003948807738
30
0
11
-75.000002309679985
21
-25.000003948807716
31
0
0
LINE
5
111
100
AcDbEntity
8
0
100
AcDbLine
10
-75.000002309679985
20
-25.000003948807716
30
0
11
-125.00000305473804
21
-25.000003948807716
31
0
0
LINE
5
112
100
AcDbEntity
8
0
100
AcDbLine
10
-125.00000305473804
20
-25.000003948807716
30
0
11
-125.00000335276127
21
-19.000003948807738
31
0
0
LINE
5
113
100
AcDbEntity
8
0
100
AcDbLine
10
-125.00000335276127
20
-19.000003948807738
30
0
11
-145.00000335276127
21
-19.000003948807738
31
0
0
LINE
5
114
100
AcDbEntity
8
0
100
AcDbLine
10
-145.00000335276127
20
-19.000003948807738
30
0
11
-145.00000335276127
21
-25.000003948807716
31
0
0
LINE
5
115
100
AcDbEntity
8
0
100
AcDbLine
10
-145.00000335276127
20
-25.000003948807716
30
0
11
-155.00000186264515
21
-25.000003948807716
31
0
0
LINE
5
116
100
AcDbEntity
8
0
100
AcDbLine
10
-155.00000186264515
20
-25.000003948807716
30
0
11
-155.00000186264515
21
-28.000003948807723
31
0
0
ARC
5
117
100
AcDbEntity
8
0
100
AcDbCircle
10
-155.00000186264512
20
-63.000003948807723
30
0
40
34.999999999999986
210
0
220
0
230
1
100
AcDbArc
50
0
51
90.000000000000057
0
LINE
5
118
100
AcDbEntity
8
0
100
AcDbLine
10
-120.00000186264514
20
-63.000003948807745
30
0
11
-115.00000186264515
21
-178.00000394880777
31
0
0
LWPOLYLINE
5
119
100
AcDbEntity
8
0
100
AcDbPolyline
90
4
70
1
43
0.0
10
-101.50000186264514
20
-28.000003948807723
10
-98.500001862645121
20
-28.000003948807723
10
-98.500001862645121
20
-48.000003948807723
10
-101.50000186264514
20
-48.000003948807723
0
LWPOLYLINE
5
120
100
AcDbEntity
8
0
100
AcDbPolyline
90
6
70
1
43
0.0
10
-29.999999999999986
20
-9.9999991059300708
10
-37.499994263052926
20
-9.9999991059300886
10
-37.499994263052855
20
-34.999999105930087
10
-44.999994263052855
20
-34.999999105930108
10
-44.999994263052855
20
-39.99999999999978
10
-29.999999999999915
20
-39.999999999999744
0
LWPOLYLINE
5
121
100
AcDbEntity
8
0
100
AcDbPolyline
90
6
70
1
43
0.0
10
-24.999994263052852
20
-34.999999105930108
10
-24.99999426305278
20
-75.000000074505593
10
-9.9999999999998401
20
-75.00000007450555
10
-9.9999999999999822
20
-9.9999991059300708
10
-17.499994263052923
20
-9.9999991059300886
10
-17.499994263052852
20
-34.999999105930094
0
LWPOLYLINE
5
122
100
AcDbEntity
8
0
100
AcDbPolyline
90
8
70
1
43
0.0
10
-39.999994188546978
20
-59.999999850988161
10
-39.999994188546978
20
-69.999999999999773
10
-44.999994263052784
20
-69.999999999999773
10
-44.999994263052784
20
-75.000000074505579
10
-29.999999999999844
20
-75.00000007450555
10
-29.999999999999844
20
-69.999999999999744
10
-34.999994114041172
20
-69.999999999999758
10
-34.999994114041172
20
-59.999999850988146
0
LWPOLYLINE
5
123
100
AcDbEntity
8
0
100
AcDbPolyline
90
6
70
1
43
0.0
10
-22.50000573694706
20
-79.999999105930328
10
-30
20
-79.999999105930328
10
-30
20
-110
10
-15.00000573694706
20
-110
10
-15.00000573694706
20
-104.99999910593033
10
-22.50000573694706
20
-104.99999910593033
0
LWPOLYLINE
5
124
100
AcDbEntity
8
0
100
AcDbPolyline
90
6
70
1
43
0.0
10
-35.00000573694706
20
-145.00000007450581
10
-35.00000573694706
20
-104.99999910593033
10
-42.50000573694706
20
-104.99999910593033
10
-42.50000573694706
20
-79.999999105930328
10
-50
20
-79.999999105930328
10
-50
20
-145.00000007450581
0
LWPOLYLINE
5
125
100
AcDbEntity
8
0
100
AcDbPolyline
90
8
70
1
43
0.0
10
-20.000005811452866
20
-140
10
-20.000005811452866
20
-129.99999985098839
10
-25.000005885958672
20
-129.99999985098839
10
-25.000005885958672
20
-140
10
-30
20
-140
10
-30
20
-145.00000007450581
10
-15.00000573694706
20
-145.00000007450581
10
-15.00000573694706
20
-140
0
LWPOLYLINE
5
126
100
AcDbEntity
8
0
100
AcDbPolyline
90
6
70
1
43
0.0
10
-95
20
-279.99999999999994
42
0.41421356237309448
10
-125
20
-250
10
-125
20
-220
10
-35.000000000000036
20
-220
10
-35
20
-250
42
0.41421356237309548
10
-65
20
-280
0
CIRCLE
5
127
100
AcDbEntity
8
0
100
AcDbCircle
10
-90.000002533197403
20
-200.00000417232513
30
0
40
1.9999999999999929
210
0
220
-0
230
1
0
LWPOLYLINE
5
128
100
AcDbEntity
8
0
100
AcDbPolyline
90
4
70
1
43
0.0
10
-95.499999999999972
20
-207.5000039935112
10
-98.499999999999972
20
-207.5000039935112
10
-98.499999999999972
20
-192.5000039935112
10
-95.499999999999972
20
-192.5000039935112
0
LWPOLYLINE
5
129
100
AcDbEntity
8
0
100
AcDbPolyline
90
4
70
1
43
0.0
10
-101.49999999999999
20
-192.5000039935112
10
-101.49999999999999
20
-207.5000039935112
10
-104.5
20
-207.5000039935112
10
-104.5
20
-192.5000039935112
0
CIRCLE
5
130
100
AcDbEntity
8
0
100
AcDbCircle
10
-110.00000283122063
20
-200.00000417232513
30
0
40
1.9999999999999929
210
0
220
-0
230
1
0
LWPOLYLINE
5
131
100
AcDbEntity
8
0
100
AcDbPolyline
90
4
70
1
43
0.0
10
-83.499999999999972
20
-212.0000039935112
10
-83.499999999999972
20
-188.0000039935112
10
-116.49999999999999
20
-188.0000039935112
10
-116.49999999999999
20
-212.0000039935112
0
CIRCLE
5
132
100
AcDbEntity
8
0
100
AcDbCircle
10
-144.50000186264518
20
-194.33333750565851
30
0
40
1.9999999999999929
210
0
220
-0
230
1
0
CIRCLE
5
133
100
AcDbEntity
8
0
100
AcDbCircle
10
-144.50000186264509
20
-136.55555972788065
30
0
40
1.9999999999999929
210
0
220
-0
230
1
0
CIRCLE
5
134
100
AcDbEntity
8
0
100
AcDbCircle
10
-144.50000186264509
20
-93.222226394547334
30
0
40
1.9999999999999929
210
0
220
-0
230
1
0
CIRCLE
5
135
100
AcDbEntity
8
0
100
AcDbCircle
10
-144.50000186264509
20
-151.00000417232508
30
0
40
1.9999999999999929
210
0
220
-0
230
1
0
CIRCLE
5
136
100
AcDbEntity
8
0
100
AcDbCircle
10
-144.50000186264518
20
-208.77778195010293
30
0
40
1.9999999999999929
210
0
220
-0
230
1
0
CIRCLE
5
137
100
AcDbEntity
8
0
100
AcDbCircle
10
-144.50000186264518
20
-179.88889306121408
30
0
40
1.9999999999999929
210
0
220
-0
230
1
0
CIRCLE
5
138
100
AcDbEntity
8
0
100
AcDbCircle
10
-144.50000186264509
20
-122.11111528343622
30
0
40
1.9999999999999929
210
0
220
-0
230
1
0
CIRCLE
5
139
100
AcDbEntity
8
0
100
AcDbCircle
10
-144.50000186264509
20
-107.66667083899179
30
0
40
1.9999999999999929
210
0
220
-0
230
1
0
CIRCLE
5
140
100
AcDbEntity
8
0
100
AcDbCircle
10
-144.50000186264518
20
-165.44444861676965
30
0
40
1.9999999999999929
210
0
220
-0
230
1
0
CIRCLE
5
141
100
AcDbEntity
8
0
100
AcDbCircle
10
-144.50000186264518
20
-223.22222639454736
30
0
40
1.9999999999999929
210
0
220
-0
230
1
0
LWPOLYLINE
5
142
100
AcDbEntity
8
0
100
AcDbPolyline
90
24
70
1
43
0.0
10
-159.5000020861626
20
-236.22222865952381
10
-156.50000208616248
20
-236.22222865952381
10
-156.50000204145911
20
-239.2222285701169
10
-154.50000603497031
20
-239.2222285701169
10
-154.50000603497031
20
-245.22222865952386
10
-134.50000603497031
20
-245.22222865952386
10
-134.50000603497031
20
-239.2222285701169
10
-132.50000204145906
20
-239.2222285701169
10
-132.50000168383124
20
-236.22222852541341
10
-129.50000168383121
20
-236.22222852541341
10
-129.50000168383121
20
-216.22222852541341
10
-132.50000168383124
20
-216.22222852541341
10
-132.50000168383116
20
-126.22222658826243
10
-129.50000168383121
20
-126.22222658826243
10
-129.50000168383121
20
-106.22222658826243
10
-132.50000168383116
20
-106.22222658826243
10
-132.50000204145906
20
-89.222228570116869
10
-156.50000204145903
20
-89.22222857011684
10
-156.50000204145903
20
-106.2222265882624
10
-159.50000208616251
20
-106.22222658826246
10
-159.50000208616251
20
-126.2222265882624
10
-156.50000208616251
20
-126.22222658826246
10
-156.50000208616248
20
-216.22222865952381
10
-159.5000020861626
20
-216.22222865952381
0
LWPOLYLINE
5
143
100
AcDbEntity
8
0
100
AcDbPolyline
90
4
70
1
43
0.0
10
-135.00000201165676
20
-265.00000394880772
10
-135.00000201165676
20
-268.0000039935112
10
-155.00000230967999
20
-268.0000039935112
10
-155.00000230967999
20
-265.00000394880772
0
LWPOLYLINE
5
144
100
AcDbEntity
8
0
100
AcDbPolyline
90
4
70
1
43
0.0
10
-155.00000230967999
20
-295.00000439584255
10
-155.00000230967999
20
-292.00000439584255
10
-135.00000230967999
20
-292.00000439584255
10
-135.00000230967999
20
-295.00000439584255
0
LWPOLYLINE
5
145
100
AcDbEntity
8
0
100
AcDbPolyline
90
4
70
1
43
0.0
10
-165
20
-260
10
-165
20
-300
10
-125
20
-300
10
-125
20
-260
0
LWPOLYLINE
5
146
100
AcDbEntity
8
0
100
AcDbPolyline
90
4
70
1
43
0.0
10
-178.49999999999997
20
-164.28571428571431
10
-181.5
20
-164.28571428571431
10
-181.5
20
-144.28571428571428
10
-178.49999999999997
20
-144.28571428571428
0
LWPOLYLINE
5
147
100
AcDbEntity
8
0
100
AcDbPolyline
90
4
70
1
43
0.0
10
-178.49999999999997
20
-227.14285714285717
10
-181.5
20
-227.14285714285717
10
-181.5
20
-207.14285714285717
10
-178.49999999999997
20
-207.14285714285717
0
LWPOLYLINE
5
148
100
AcDbEntity
8
0
100
AcDbPolyline
90
4
70
1
43
0.0
10
-178.49999999999997
20
-132.85714285714286
10
-181.5
20
-132.85714285714286
10
-181.5
20
-112.85714285714286
10
-178.49999999999997
20
-112.85714285714286
0
LWPOLYLINE
5
149
100
AcDbEntity
8
0
100
AcDbPolyline
90
4
70
1
43
0.0
10
-178.49999999999997
20
-195.71428571428569
10
-181.5
20
-195.71428571428569
10
-181.5
20
-175.71428571428569
10
-178.49999999999997
20
-175.71428571428569
0
LWPOLYLINE
5
150
100
AcDbEntity
8
0
100
AcDbPolyline
90
4
70
1
43
0.0
10
-181.5
20
-290
10
-181.5
20
-270
10
-178.49999999999997
20
-270
10
-178.49999999999997
20
-290
0
LWPOLYLINE
5
151
100
AcDbEntity
8
0
100
AcDbPolyline
90
4
70
1
43
0.0
10
-178.49999999999997
20
-70
10
-181.5
20
-70
10
-181.5
20
-50
10
-178.49999999999997
20
-50
0
LWPOLYLINE
5
152
100
AcDbEntity
8
0
100
AcDbPolyline
90
4
70
1
43
0.0
10
-178.49999999999997
20
-258.57142857142856
10
-181.5
20
-258.57142857142856
10
-181.5
20
-238.57142857142858
10
-178.49999999999997
20
-238.57142857142858
0
LWPOLYLINE
5
153
100
AcDbEntity
8
0
100
AcDbPolyline
90
4
70
1
43
0.0
10
-178.49999999999997
20
-101.42857142857142
10
-181.5
20
-101.42857142857142
10
-181.5
20
-81.428571428571416
10
-178.49999999999997
20
-81.428571428571416
0
LWPOLYLINE
5
154
100
AcDbEntity
8
0
100
AcDbPolyline
90
18
70
1
43
0.0
10
-145.00000216066837
20
9.4098281236907333
42
2.6180339364098644
10
-155.00000230967999
20
9.4098321220919665
10
-155.00000230967999
20
0
10
-175.00000260770321
20
0
10
-175.00000260770321
20
-9.4098303464079631
42
-2.6180339364101446
10
-185.00000275671482
20
-9.4098303464079613
10
-185.00000275671482
20
0
10
-205.00000305473804
20
0
10
-205.00000305473804
20
9.4098273240112462
42
2.6180339364095975
10
-215.00000320374966
20
9.4098329217729884
10
-215.00000320374966
20
0
10
-225
20
8.8817841970012523e-15
42
-0.41421356237309442
10
-195
20
-30
10
-195
20
-300
10
-165
20
-300
10
-165
20
-30
42
-0.41421356237309559
10
-135
20
0
10
-145.00000216066837
20
0
0
LWPOLYLINE
5
155
100
AcDbEntity
8
0
100
AcDbPolyline
90
4
70
1
43
0.0
10
-205.00000305473804
20
-265.00000394880772
10
-205.00000305473804
20
-268.00000394880772
10
-225.00000335276127
20
-268.00000394880772
10
-225.00000335276127
20
-265.00000394880772
0
LWPOLYLINE
5
156
100
AcDbEntity
8
0
100
AcDbPolyline
90
4
70
1
43
0.0
10
-225.00000305473804
20
-292.00000439584255
10
-205.00000305473804
20
-292.00000439584255
10
-205.00000305473804
20
-295.00000439584255
10
-225.00000305473804
20
-295.00000439584255
0
LWPOLYLINE
5
157
100
AcDbEntity
8
0
100
AcDbPolyline
90
4
70
1
43
0.0
10
-195
20
-300
10
-195
20
-260
10
-235
20
-260
10
-235
20
-300
0
LWPOLYLINE
5
158
100
AcDbEntity
8
0
100
AcDbPolyline
90
4
70
1
43
0.0
10
-258.50000268220901
20
-158.00000602006912
10
-261.50000268220901
20
-158.00000602006912
10
-261.50000268220901
20
-138.00000602006912
10
-258.50000268220901
20
-138.00000602006912
0
LINE
5
159
100
AcDbEntity
8
0
100
AcDbLine
10
-275.00000186264515
20
-178.00000394880769
30
0
11
-260.00000186264515
21
-178.00000394880769
31
0
0
LINE
5
160
100
AcDbEntity
8
0
100
AcDbLine
10
-260.00000186264515
20
-178.00000394880769
30
0
11
-245.00000186264518
21
-178.0000027194618
31
0
0
LINE
5
161
100
AcDbEntity
8
0
100
AcDbLine
10
-245.00000186264518
20
-178.0000027194618
30
0
11
-240.00001128763063
21
-63.000002309680205
31
0
0
ARC
5
162
100
AcDbEntity
8
0
100
AcDbCircle
10
-205.00001128763071
20
-62.999999441206391
30
0
40
35.000000000000043
210
0
220
0
230
1
100
AcDbArc
50
90.000004695755564
51
180.00000467631085
0
LINE
5
163
100
AcDbEntity
8
0
100
AcDbLine
10
-205.00000186264515
20
-28.000003948807723
30
0
11
-205.00000186264515
21
-25.000003948807716
31
0
0
LINE
5
164
100
AcDbEntity
8
0
100
AcDbLine
10
-205.00000186264515
20
-25.000003948807716
30
0
11
-215.00000230967999
21
-25.000003948807716
31
0
0
LINE
5
165
100
AcDbEntity
8
0
100
AcDbLine
10
-215.00000230967999
20
-25.000003948807716
30
0
11
-215.00000230967999
21
-19.000003948807738
31
0
0
LINE
5
166
100
AcDbEntity
8
0
100
AcDbLine
10
-215.00000230967999
20
-19.000003948807738
30
0
11
-235.00000230967999
21
-19.000003948807738
31
0
0
LINE
5
167
100
AcDbEntity
8
0
100
AcDbLine
10
-235.00000230967999
20
-19.000003948807738
30
0
11
-235.00000230967999
21
-25.000003948807716
31
0
0
LINE
5
168
100
AcDbEntity
8
0
100
AcDbLine
10
-235.00000230967999
20
-25.000003948807716
30
0
11
-285.00000305473804
21
-25.000003948807716
31
0
0
LINE
5
169
100
AcDbEntity
8
0
100
AcDbLine
10
-285.00000305473804
20
-25.000003948807716
30
0
11
-285.00000335276127
21
-19.000003948807738
31
0
0
LINE
5
170
100
AcDbEntity
8
0
100
AcDbLine
10
-285.00000335276127
20
-19.000003948807738
30
0
11
-305.00000335276127
21
-19.000003948807738
31
0
0
LINE
5
171
100
AcDbEntity
8
0
100
AcDbLine
10
-305.00000335276127
20
-19.000003948807738
30
0
11
-305.00000335276127
21
-25.000003948807716
31
0
0
LINE
5
172
100
AcDbEntity
8
0
100
AcDbLine
10
-305.00000335276127
20
-25.000003948807716
30
0
11
-315.00000186264515
21
-25.000003948807716
31
0
0
LINE
5
173
100
AcDbEntity
8
0
100
AcDbLine
10
-315.00000186264515
20
-25.000003948807716
30
0
11
-315.00000186264515
21
-28.000003948807723
31
0
0
ARC
5
174
100
AcDbEntity
8
0
100
AcDbCircle
10
-315.00000186264509
20
-63.000003948807702
30
0
40
34.999999999999929
210
0
220
0
230
1
100
AcDbArc
50
0
51
90.000000000000099
0
LINE
5
175
100
AcDbEntity
8
0
100
AcDbLine
10
-280.00000186264515
20
-63.000003948807745
30
0
11
-275.00000186264515
21
-178.00000394880769
31
0
0
LWPOLYLINE
5
176
100
AcDbEntity
8
0
100
AcDbPolyline
90
4
70
1
43
0.0
10
-261.50000186264515
20
-28.000003948807723
10
-258.50000186264515
20
-28.000003948807723
10
-258.50000186264515
20
-48.000003948807723
10
-261.50000186264515
20
-48.000003948807723
0
CIRCLE
5
177
100
AcDbEntity
8
0
100
AcDbCircle
10
-334.50000186264509
20
-41.111115283436241
30
0
40
1.9999999999999929
210
0
220
0
230
1
0
CIRCLE
5
178
100
AcDbEntity
8
0
100
AcDbCircle
10
-334.50000186264509
20
-142.22222639454731
30
0
40
1.9999999999999929
210
0
220
0
230
1
0
CIRCLE
5
179
100
AcDbEntity
8
0
100
AcDbCircle
10
-334.50000186264509
20
-84.444448616769535
30
0
40
1.9999999999999929
210
0
220
0
230
1
0
CIRCLE
5
180
100
AcDbEntity
8
0
100
AcDbCircle
10
-334.50000186264509
20
-113.33333750565842
30
0
40
1.9999999999999929
210
0
220
0
230
1
0
CIRCLE
5
181
100
AcDbEntity
8
0
100
AcDbCircle
10
-334.50000186264509
20
-127.77778195010285
30
0
40
1.9999999999999929
210
0
220
0
230
1
0
CIRCLE
5
182
100
AcDbEntity
8
0
100
AcDbCircle
10
-334.50000186264509
20
-98.888893061213963
30
0
40
1.9999999999999929
210
0
220
0
230
1
0
CIRCLE
5
183
100
AcDbEntity
8
0
100
AcDbCircle
10
-334.50000186264509
20
-26.666670838991742
30
0
40
1.9999999999999929
210
0
220
0
230
1
0
CIRCLE
5
184
100
AcDbEntity
8
0
100
AcDbCircle
10
-334.50000186264504
20
-12.222226394547313
30
0
40
1.9999999999999929
210
0
220
0
230
1
0
CIRCLE
5
185
100
AcDbEntity
8
0
100
AcDbCircle
10
-334.50000186264509
20
-70.000004172325106
30
0
40
1.9999999999999929
210
0
220
0
230
1
0
CIRCLE
5
186
100
AcDbEntity
8
0
100
AcDbCircle
10
-334.50000186264509
20
-55.555559727880635
30
0
40
1.9999999999999929
210
0
220
0
230
1
0
LWPOLYLINE
5
187
100
AcDbEntity
8
0
100
AcDbPolyline
90
8
70
1
43
0.0
10
-346.50000204145897
20
-8.2222285701168829
10
-346.50000204145903
20
-158.22222857011684
10
-322.50000204145897
20
-158.22222857011684
10
-322.50000204145908
20
-8.2222285701168829
10
-327.00000204145908
20
-8.2222285701168829
10
-327.00000204145908
20
-5.2222285701168403
10
-342.00000204145908
20
-5.2222285701168758
10
-342.00000204145908
20
-8.2222285701168829
0
CIRCLE
5
188
100
AcDbEntity
8
0
100
AcDbCircle
10
-364.50000186264509
20
-41.111115283436241
30
0
40
1.9999999999999929
210
0
220
0
230
1
0
CIRCLE
5
189
100
AcDbEntity
8
0
100
AcDbCircle
10
-364.50000186264509
20
-142.22222639454731
30
0
40
1.9999999999999929
210
0
220
0
230
1
0
CIRCLE
5
190
100
AcDbEntity
8
0
100
AcDbCircle
10
-364.50000186264509
20
-84.444448616769535
30
0
40
1.9999999999999929
210
0
220
0
230
1
0
CIRCLE
5
191
100
AcDbEntity
8
0
100
AcDbCircle
10
-364.50000186264509
20
-113.33333750565842
30
0
40
1.9999999999999929
210
0
220
0
230
1
0
CIRCLE
5
192
100
AcDbEntity
8
0
100
AcDbCircle
10
-364.50000186264509
20
-127.77778195010285
30
0
40
1.9999999999999929
210
0
220
0
230
1
0
CIRCLE
5
193
100
AcDbEntity
8
0
100
AcDbCircle
10
-364.50000186264509
20
-98.888893061213963
30
0
40
1.9999999999999929
210
0
220
0
230
1
0
CIRCLE
5
194
100
AcDbEntity
8
0
100
AcDbCircle
10
-364.50000186264509
20
-26.666670838991742
30
0
40
1.9999999999999929
210
0
220
0
230
1
0
CIRCLE
5
195
100
AcDbEntity
8
0
100
AcDbCircle
10
-364.50000186264504
20
-12.222226394547313
30
0
40
1.9999999999999929
210
0
220
0
230
1
0
CIRCLE
5
196
100
AcDbEntity
8
0
100
AcDbCircle
10
-364.50000186264509
20
-70.000004172325106
30
0
40
1.9999999999999929
210
0
220
0
230
1
0
CIRCLE
5
197
100
AcDbEntity
8
0
100
AcDbCircle
10
-364.50000186264509
20
-55.555559727880635
30
0
40
1.9999999999999929
210
0
220
0
230
1
0
LWPOLYLINE
5
198
100
AcDbEntity
8
0
100
AcDbPolyline
90
8
70
1
43
0.0
10
-376.50000204145897
20
-8.2222285701168829
10
-376.50000204145903
20
-158.22222857011684
10
-352.50000204145897
20
-158.22222857011684
10
-352.50000204145908
20
-8.2222285701168829
10
-357.00000204145908
20
-8.2222285701168829
10
-357.00000204145908
20
-5.2222285701168403
10
-372.00000204145908
20
-5.2222285701168758
10
-372.00000204145908
20
-8.2222285701168829
0
LWPOLYLINE
5
199
100
AcDbEntity
8
0
100
AcDbPolyline
90
4
70
1
43
0.0
10
-301.5
20
-195
10
-298.5
20
-195
10
-298.5
20
-215
10
-301.5
20
-215
0
LWPOLYLINE
5
200
100
AcDbEntity
8
0
100
AcDbPolyline
90
4
70
1
43
0.0
10
-275.00000230967999
20
-220.00000439584255
10
-275.00000230967999
20
-217.00000439584258
10
-255.00000230967999
20
-217.00000439584258
10
-255.00000230967999
20
-220.00000439584255
0
LWPOLYLINE
5
201
100
AcDbEntity
8
0
100
AcDbPolyline
90
4
70
1
43
0.0
10
-255.00000201165676
20
-190.00000394880772
10
-255.00000201165676
20
-193.0000039935112
10
-275.00000230967999
20
-193.0000039935112
10
-275.00000230967999
20
-190.00000394880772
0
LWPOLYLINE
5
202
100
AcDbEntity
8
0
100
AcDbPolyline
90
4
70
1
43
0.0
10
-345.00000305473804
20
-217.00000439584258
10
-325.00000305473804
20
-217.00000439584258
10
-325.00000305473804
20
-220.00000439584255
10
-345.00000305473804
20
-220.00000439584255
0
LWPOLYLINE
5
203
100
AcDbEntity
8
0
100
AcDbPolyline
90
4
70
1
43
0.0
10
-325.00000305473804
20
-190.00000394880772
10
-325.00000305473804
20
-193.00000394880772
10
-345.00000335276127
20
-193.00000394880772
10
-345.00000335276127
20
-190.00000394880772
0
LWPOLYLINE
5
204
100
AcDbEntity
8
0
100
AcDbPolyline
90
4
70
1
43
0.0
10
-245
20
-225
10
-245
20
-185
10
-355
20
-185
10
-355
20
-225
0
LWPOLYLINE
5
205
100
AcDbEntity
8
0
100
AcDbPolyline
90
4
70
1
43
0.0
10
50
20
40
10
-410
20
40
10
-410
20
-310
10
50
20
-310
0
ENDSEC
0
SECTION
2
OBJECTS
0
DICTIONARY
5
C
100
AcDbDictionary
3
ACAD_GROUP
350
D
3
ACAD_MLINESTYLE
350
17
0
DICTIONARY
5
D
100
AcDbDictionary
0
DICTIONARY
5
1A
330
C
100
AcDbDictionary
0
DICTIONARY
5
17
100
AcDbDictionary
0
ENDSEC
0
EOF
